<svg width="23" height="23" viewBox="0 0 23 23" fill="none" xmlns="http://www.w3.org/2000/svg">
<path fill-rule="evenodd" clip-rule="evenodd" d="M11.8506 12.3198L2.78777 21.3826C2.51831 21.6521 2.08142 21.6521 1.81196 21.3826C1.5425 21.1132 1.5425 20.6763 1.81196 20.4068L10.8748 11.344L1.81196 2.28111C1.5425 2.01165 1.5425 1.57477 1.81196 1.30531C2.08142 1.03585 2.51831 1.03585 2.78777 1.30531L11.8506 10.3682L20.9135 1.30531C21.1829 1.03585 21.6198 1.03585 21.8893 1.30531C22.1587 1.57477 22.1587 2.01165 21.8893 2.28111L12.8264 11.344L21.8893 20.4068C22.1587 20.6763 22.1587 21.1132 21.8893 21.3826C21.6198 21.6521 21.1829 21.6521 20.9135 21.3826L11.8506 12.3198Z" fill="black"/>
</svg>
